<svg width="2000" height="1203" viewBox="0 0 2000 1203" fill="none" xmlns="http://www.w3.org/2000/svg">
<rect x="0.5" y="0.5" width="1999" height="1201.75" fill="#1C1E1F" stroke="#4D4D4D"/>
<path d="M414.752 121.4C414.752 133 410.752 142.667 402.752 150.4C394.886 158 382.819 161.8 366.552 161.8H339.752V220H321.552V80.6H366.552C382.286 80.6 394.219 84.4 402.352 92C410.619 99.6 414.752 109.4 414.752 121.4ZM366.552 146.8C376.686 146.8 384.152 144.6 388.952 140.2C393.752 135.8 396.152 129.533 396.152 121.4C396.152 104.2 386.286 95.6 366.552 95.6H339.752V146.8H366.552ZM455.573 128.2C458.773 121.933 463.306 117.067 469.173 113.6C475.173 110.133 482.439 108.4 490.973 108.4V127.2H486.173C465.773 127.2 455.573 138.267 455.573 160.4V220H437.373V110.4H455.573V128.2ZM559.782 221.8C549.515 221.8 540.182 219.467 531.782 214.8C523.515 210.133 516.982 203.533 512.182 195C507.515 186.333 505.182 176.333 505.182 165C505.182 153.8 507.582 143.933 512.382 135.4C517.315 126.733 523.982 120.133 532.382 115.6C540.782 110.933 550.182 108.6 560.582 108.6C570.982 108.6 580.382 110.933 588.782 115.6C597.182 120.133 603.782 126.667 608.582 135.2C613.515 143.733 615.982 153.667 615.982 165C615.982 176.333 613.449 186.333 608.382 195C603.449 203.533 596.715 210.133 588.182 214.8C579.649 219.467 570.182 221.8 559.782 221.8ZM559.782 205.8C566.315 205.8 572.449 204.267 578.182 201.2C583.915 198.133 588.515 193.533 591.982 187.4C595.582 181.267 597.382 173.8 597.382 165C597.382 156.2 595.649 148.733 592.182 142.6C588.715 136.467 584.182 131.933 578.582 129C572.982 125.933 566.915 124.4 560.382 124.4C553.715 124.4 547.582 125.933 541.982 129C536.515 131.933 532.115 136.467 528.782 142.6C525.449 148.733 523.782 156.2 523.782 165C523.782 173.933 525.382 181.467 528.582 187.6C531.915 193.733 536.315 198.333 541.782 201.4C547.249 204.333 553.249 205.8 559.782 205.8ZM685.112 108.6C694.578 108.6 702.845 110.667 709.912 114.8C717.112 118.933 722.445 124.133 725.912 130.4V110.4H744.312V222.4C744.312 232.4 742.178 241.267 737.912 249C733.645 256.867 727.512 263 719.512 267.4C711.645 271.8 702.445 274 691.912 274C677.512 274 665.512 270.6 655.912 263.8C646.312 257 640.645 247.733 638.912 236H656.912C658.912 242.667 663.045 248 669.312 252C675.578 256.133 683.112 258.2 691.912 258.2C701.912 258.2 710.045 255.067 716.312 248.8C722.712 242.533 725.912 233.733 725.912 222.4V199.4C722.312 205.8 716.978 211.133 709.912 215.4C702.845 219.667 694.578 221.8 685.112 221.8C675.378 221.8 666.512 219.4 658.512 214.6C650.645 209.8 644.445 203.067 639.912 194.4C635.378 185.733 633.112 175.867 633.112 164.8C633.112 153.6 635.378 143.8 639.912 135.4C644.445 126.867 650.645 120.267 658.512 115.6C666.512 110.933 675.378 108.6 685.112 108.6ZM725.912 165C725.912 156.733 724.245 149.533 720.912 143.4C717.578 137.267 713.045 132.6 707.312 129.4C701.712 126.067 695.512 124.4 688.712 124.4C681.912 124.4 675.712 126 670.112 129.2C664.512 132.4 660.045 137.067 656.712 143.2C653.378 149.333 651.712 156.533 651.712 164.8C651.712 173.2 653.378 180.533 656.712 186.8C660.045 192.933 664.512 197.667 670.112 201C675.712 204.2 681.912 205.8 688.712 205.8C695.512 205.8 701.712 204.2 707.312 201C713.045 197.667 717.578 192.933 720.912 186.8C724.245 180.533 725.912 173.267 725.912 165ZM793.268 128.2C796.468 121.933 801.001 117.067 806.868 113.6C812.868 110.133 820.135 108.4 828.668 108.4V127.2H823.868C803.468 127.2 793.268 138.267 793.268 160.4V220H775.068V110.4H793.268V128.2ZM842.877 164.8C842.877 153.6 845.144 143.8 849.677 135.4C854.211 126.867 860.411 120.267 868.277 115.6C876.277 110.933 885.144 108.6 894.877 108.6C904.477 108.6 912.811 110.667 919.877 114.8C926.944 118.933 932.211 124.133 935.677 130.4V110.4H954.077V220H935.677V199.6C932.077 206 926.677 211.333 919.477 215.6C912.411 219.733 904.144 221.8 894.677 221.8C884.944 221.8 876.144 219.4 868.277 214.6C860.411 209.8 854.211 203.067 849.677 194.4C845.144 185.733 842.877 175.867 842.877 164.8ZM935.677 165C935.677 156.733 934.011 149.533 930.677 143.4C927.344 137.267 922.811 132.6 917.077 129.4C911.477 126.067 905.277 124.4 898.477 124.4C891.677 124.4 885.477 126 879.877 129.2C874.277 132.4 869.811 137.067 866.477 143.2C863.144 149.333 861.477 156.533 861.477 164.8C861.477 173.2 863.144 180.533 866.477 186.8C869.811 192.933 874.277 197.667 879.877 201C885.477 204.2 891.677 205.8 898.477 205.8C905.277 205.8 911.477 204.2 917.077 201C922.811 197.667 927.344 192.933 930.677 186.8C934.011 180.533 935.677 173.267 935.677 165ZM1116.63 108.4C1125.17 108.4 1132.77 110.2 1139.43 113.8C1146.1 117.267 1151.37 122.533 1155.23 129.6C1159.1 136.667 1161.03 145.267 1161.03 155.4V220H1143.03V158C1143.03 147.067 1140.3 138.733 1134.83 133C1129.5 127.133 1122.23 124.2 1113.03 124.2C1103.57 124.2 1096.03 127.267 1090.43 133.4C1084.83 139.4 1082.03 148.133 1082.03 159.6V220H1064.03V158C1064.03 147.067 1061.3 138.733 1055.83 133C1050.5 127.133 1043.23 124.2 1034.03 124.2C1024.57 124.2 1017.03 127.267 1011.43 133.4C1005.83 139.4 1003.03 148.133 1003.03 159.6V220H984.834V110.4H1003.03V126.2C1006.63 120.467 1011.43 116.067 1017.43 113C1023.57 109.933 1030.3 108.4 1037.63 108.4C1046.83 108.4 1054.97 110.467 1062.03 114.6C1069.1 118.733 1074.37 124.8 1077.83 132.8C1080.9 125.067 1085.97 119.067 1093.03 114.8C1100.1 110.533 1107.97 108.4 1116.63 108.4ZM1322.69 108.4C1331.22 108.4 1338.82 110.2 1345.49 113.8C1352.15 117.267 1357.42 122.533 1361.29 129.6C1365.15 136.667 1367.09 145.267 1367.09 155.4V220H1349.09V158C1349.09 147.067 1346.35 138.733 1340.89 133C1335.55 127.133 1328.29 124.2 1319.09 124.2C1309.62 124.2 1302.09 127.267 1296.49 133.4C1290.89 139.4 1288.09 148.133 1288.09 159.6V220H1270.09V158C1270.09 147.067 1267.35 138.733 1261.89 133C1256.55 127.133 1249.29 124.2 1240.09 124.2C1230.62 124.2 1223.09 127.267 1217.49 133.4C1211.89 139.4 1209.09 148.133 1209.09 159.6V220H1190.89V110.4H1209.09V126.2C1212.69 120.467 1217.49 116.067 1223.49 113C1229.62 109.933 1236.35 108.4 1243.69 108.4C1252.89 108.4 1261.02 110.467 1268.09 114.6C1275.15 118.733 1280.42 124.8 1283.89 132.8C1286.95 125.067 1292.02 119.067 1299.09 114.8C1306.15 110.533 1314.02 108.4 1322.69 108.4ZM1406.34 92.6C1402.88 92.6 1399.94 91.4 1397.54 89C1395.14 86.6 1393.94 83.6667 1393.94 80.2C1393.94 76.7333 1395.14 73.8 1397.54 71.4C1399.94 69 1402.88 67.8 1406.34 67.8C1409.68 67.8 1412.48 69 1414.74 71.4C1417.14 73.8 1418.34 76.7333 1418.34 80.2C1418.34 83.6667 1417.14 86.6 1414.74 89C1412.48 91.4 1409.68 92.6 1406.34 92.6ZM1415.14 110.4V220H1396.94V110.4H1415.14ZM1499.56 108.4C1512.9 108.4 1523.7 112.467 1531.96 120.6C1540.23 128.6 1544.36 140.2 1544.36 155.4V220H1526.36V158C1526.36 147.067 1523.63 138.733 1518.16 133C1512.7 127.133 1505.23 124.2 1495.76 124.2C1486.16 124.2 1478.5 127.2 1472.76 133.2C1467.16 139.2 1464.36 147.933 1464.36 159.4V220H1446.16V110.4H1464.36V126C1467.96 120.4 1472.83 116.067 1478.96 113C1485.23 109.933 1492.1 108.4 1499.56 108.4ZM1619.29 108.6C1628.76 108.6 1637.02 110.667 1644.09 114.8C1651.29 118.933 1656.62 124.133 1660.09 130.4V110.4H1678.49V222.4C1678.49 232.4 1676.36 241.267 1672.09 249C1667.82 256.867 1661.69 263 1653.69 267.4C1645.82 271.8 1636.62 274 1626.09 274C1611.69 274 1599.69 270.6 1590.09 263.8C1580.49 257 1574.82 247.733 1573.09 236H1591.09C1593.09 242.667 1597.22 248 1603.49 252C1609.76 256.133 1617.29 258.2 1626.09 258.2C1636.09 258.2 1644.22 255.067 1650.49 248.8C1656.89 242.533 1660.09 233.733 1660.09 222.4V199.4C1656.49 205.8 1651.16 211.133 1644.09 215.4C1637.02 219.667 1628.76 221.8 1619.29 221.8C1609.56 221.8 1600.69 219.4 1592.69 214.6C1584.82 209.8 1578.62 203.067 1574.09 194.4C1569.56 185.733 1567.29 175.867 1567.29 164.8C1567.29 153.6 1569.56 143.8 1574.09 135.4C1578.62 126.867 1584.82 120.267 1592.69 115.6C1600.69 110.933 1609.56 108.6 1619.29 108.6ZM1660.09 165C1660.09 156.733 1658.42 149.533 1655.09 143.4C1651.76 137.267 1647.22 132.6 1641.49 129.4C1635.89 126.067 1629.69 124.4 1622.89 124.4C1616.09 124.4 1609.89 126 1604.29 129.2C1598.69 132.4 1594.22 137.067 1590.89 143.2C1587.56 149.333 1585.89 156.533 1585.89 164.8C1585.89 173.2 1587.56 180.533 1590.89 186.8C1594.22 192.933 1598.69 197.667 1604.29 201C1609.89 204.2 1616.09 205.8 1622.89 205.8C1629.69 205.8 1635.89 204.2 1641.49 201C1647.22 197.667 1651.76 192.933 1655.09 186.8C1658.42 180.533 1660.09 173.267 1660.09 165Z" fill="#4D4D4D"/>
<path d="M553.05 286.6C568.25 286.6 581.383 289.467 592.45 295.2C603.65 300.8 612.183 308.867 618.05 319.4C624.05 329.933 627.05 342.333 627.05 356.6C627.05 370.867 624.05 383.267 618.05 393.8C612.183 404.2 603.65 412.2 592.45 417.8C581.383 423.267 568.25 426 553.05 426H509.65V286.6H553.05ZM553.05 411C571.05 411 584.783 406.267 594.25 396.8C603.717 387.2 608.45 373.8 608.45 356.6C608.45 339.267 603.65 325.733 594.05 316C584.583 306.267 570.917 301.4 553.05 301.4H527.85V411H553.05ZM660.456 298.6C656.99 298.6 654.056 297.4 651.656 295C649.256 292.6 648.056 289.667 648.056 286.2C648.056 282.733 649.256 279.8 651.656 277.4C654.056 275 656.99 273.8 660.456 273.8C663.79 273.8 666.59 275 668.856 277.4C671.256 279.8 672.456 282.733 672.456 286.2C672.456 289.667 671.256 292.6 668.856 295C666.59 297.4 663.79 298.6 660.456 298.6ZM669.256 316.4V426H651.056V316.4H669.256ZM693.475 371C693.475 359.667 695.742 349.8 700.275 341.4C704.808 332.867 711.075 326.267 719.075 321.6C727.208 316.933 736.475 314.6 746.875 314.6C760.342 314.6 771.408 317.867 780.075 324.4C788.875 330.933 794.675 340 797.475 351.6H777.875C776.008 344.933 772.342 339.667 766.875 335.8C761.542 331.933 754.875 330 746.875 330C736.475 330 728.075 333.6 721.675 340.8C715.275 347.867 712.075 357.933 712.075 371C712.075 384.2 715.275 394.4 721.675 401.6C728.075 408.8 736.475 412.4 746.875 412.4C754.875 412.4 761.542 410.533 766.875 406.8C772.208 403.067 775.875 397.733 777.875 390.8H797.475C794.542 402 788.675 411 779.875 417.8C771.075 424.467 760.075 427.8 746.875 427.8C736.475 427.8 727.208 425.467 719.075 420.8C711.075 416.133 704.808 409.533 700.275 401C695.742 392.467 693.475 382.467 693.475 371ZM843.959 331.4V396C843.959 401.333 845.093 405.133 847.359 407.4C849.626 409.533 853.559 410.6 859.159 410.6H872.559V426H856.159C846.026 426 838.426 423.667 833.359 419C828.293 414.333 825.759 406.667 825.759 396V331.4H811.559V316.4H825.759V288.8H843.959V316.4H872.559V331.4H843.959ZM904.011 298.6C900.544 298.6 897.611 297.4 895.211 295C892.811 292.6 891.611 289.667 891.611 286.2C891.611 282.733 892.811 279.8 895.211 277.4C897.611 275 900.544 273.8 904.011 273.8C907.344 273.8 910.144 275 912.411 277.4C914.811 279.8 916.011 282.733 916.011 286.2C916.011 289.667 914.811 292.6 912.411 295C910.144 297.4 907.344 298.6 904.011 298.6ZM912.811 316.4V426H894.611V316.4H912.811ZM991.63 427.8C981.363 427.8 972.03 425.467 963.63 420.8C955.363 416.133 948.83 409.533 944.03 401C939.363 392.333 937.03 382.333 937.03 371C937.03 359.8 939.43 349.933 944.23 341.4C949.163 332.733 955.83 326.133 964.23 321.6C972.63 316.933 982.03 314.6 992.43 314.6C1002.83 314.6 1012.23 316.933 1020.63 321.6C1029.03 326.133 1035.63 332.667 1040.43 341.2C1045.36 349.733 1047.83 359.667 1047.83 371C1047.83 382.333 1045.3 392.333 1040.23 401C1035.3 409.533 1028.56 416.133 1020.03 420.8C1011.5 425.467 1002.03 427.8 991.63 427.8ZM991.63 411.8C998.163 411.8 1004.3 410.267 1010.03 407.2C1015.76 404.133 1020.36 399.533 1023.83 393.4C1027.43 387.267 1029.23 379.8 1029.23 371C1029.23 362.2 1027.5 354.733 1024.03 348.6C1020.56 342.467 1016.03 337.933 1010.43 335C1004.83 331.933 998.763 330.4 992.23 330.4C985.563 330.4 979.43 331.933 973.83 335C968.363 337.933 963.963 342.467 960.63 348.6C957.296 354.733 955.63 362.2 955.63 371C955.63 379.933 957.23 387.467 960.43 393.6C963.763 399.733 968.163 404.333 973.63 407.4C979.096 410.333 985.096 411.8 991.63 411.8ZM1125.16 314.4C1138.49 314.4 1149.29 318.467 1157.56 326.6C1165.83 334.6 1169.96 346.2 1169.96 361.4V426H1151.96V364C1151.96 353.067 1149.23 344.733 1143.76 339C1138.29 333.133 1130.83 330.2 1121.36 330.2C1111.76 330.2 1104.09 333.2 1098.36 339.2C1092.76 345.2 1089.96 353.933 1089.96 365.4V426H1071.76V316.4H1089.96V332C1093.56 326.4 1098.43 322.067 1104.56 319C1110.83 315.933 1117.69 314.4 1125.16 314.4ZM1192.89 370.8C1192.89 359.6 1195.16 349.8 1199.69 341.4C1204.22 332.867 1210.42 326.267 1218.29 321.6C1226.29 316.933 1235.16 314.6 1244.89 314.6C1254.49 314.6 1262.82 316.667 1269.89 320.8C1276.96 324.933 1282.22 330.133 1285.69 336.4V316.4H1304.09V426H1285.69V405.6C1282.09 412 1276.69 417.333 1269.49 421.6C1262.42 425.733 1254.16 427.8 1244.69 427.8C1234.96 427.8 1226.16 425.4 1218.29 420.6C1210.42 415.8 1204.22 409.067 1199.69 400.4C1195.16 391.733 1192.89 381.867 1192.89 370.8ZM1285.69 371C1285.69 362.733 1284.02 355.533 1280.69 349.4C1277.36 343.267 1272.82 338.6 1267.09 335.4C1261.49 332.067 1255.29 330.4 1248.49 330.4C1241.69 330.4 1235.49 332 1229.89 335.2C1224.29 338.4 1219.82 343.067 1216.49 349.2C1213.16 355.333 1211.49 362.533 1211.49 370.8C1211.49 379.2 1213.16 386.533 1216.49 392.8C1219.82 398.933 1224.29 403.667 1229.89 407C1235.49 410.2 1241.69 411.8 1248.49 411.8C1255.29 411.8 1261.49 410.2 1267.09 407C1272.82 403.667 1277.36 398.933 1280.69 392.8C1284.02 386.533 1285.69 379.267 1285.69 371ZM1353.05 334.2C1356.25 327.933 1360.78 323.067 1366.65 319.6C1372.65 316.133 1379.91 314.4 1388.45 314.4V333.2H1383.65C1363.25 333.2 1353.05 344.267 1353.05 366.4V426H1334.85V316.4H1353.05V334.2ZM1503.85 316.4L1437.85 477.6H1419.05L1440.65 424.8L1396.45 316.4H1416.65L1451.05 405.2L1485.05 316.4H1503.85Z" fill="#4D4D4D"/>
<path d="M325.951 620.5H295.551L289.951 636H280.351L305.551 566.7H316.051L341.151 636H331.551L325.951 620.5ZM323.351 613.1L310.751 577.9L298.151 613.1H323.351ZM398.194 636.9C393.994 636.9 390.227 636.2 386.894 634.8C383.56 633.333 380.927 631.333 378.994 628.8C377.06 626.2 375.994 623.233 375.794 619.9H385.194C385.46 622.633 386.727 624.867 388.994 626.6C391.327 628.333 394.36 629.2 398.094 629.2C401.56 629.2 404.294 628.433 406.294 626.9C408.294 625.367 409.294 623.433 409.294 621.1C409.294 618.7 408.227 616.933 406.094 615.8C403.96 614.6 400.66 613.433 396.194 612.3C392.127 611.233 388.794 610.167 386.194 609.1C383.66 607.967 381.46 606.333 379.594 604.2C377.794 602 376.894 599.133 376.894 595.6C376.894 592.8 377.727 590.233 379.394 587.9C381.06 585.567 383.427 583.733 386.494 582.4C389.56 581 393.06 580.3 396.994 580.3C403.06 580.3 407.96 581.833 411.694 584.9C415.427 587.967 417.427 592.167 417.694 597.5H408.594C408.394 594.633 407.227 592.333 405.094 590.6C403.027 588.867 400.227 588 396.694 588C393.427 588 390.827 588.7 388.894 590.1C386.96 591.5 385.994 593.333 385.994 595.6C385.994 597.4 386.56 598.9 387.694 600.1C388.894 601.233 390.36 602.167 392.094 602.9C393.894 603.567 396.36 604.333 399.494 605.2C403.427 606.267 406.627 607.333 409.094 608.4C411.56 609.4 413.66 610.933 415.394 613C417.194 615.067 418.127 617.767 418.194 621.1C418.194 624.1 417.36 626.8 415.694 629.2C414.027 631.6 411.66 633.5 408.594 634.9C405.594 636.233 402.127 636.9 398.194 636.9ZM481.04 606.5C481.04 608.233 480.94 610.067 480.74 612H436.94C437.273 617.4 439.107 621.633 442.44 624.7C445.84 627.7 449.94 629.2 454.74 629.2C458.673 629.2 461.94 628.3 464.54 626.5C467.207 624.633 469.073 622.167 470.14 619.1H479.94C478.473 624.367 475.54 628.667 471.14 632C466.74 635.267 461.273 636.9 454.74 636.9C449.54 636.9 444.873 635.733 440.74 633.4C436.673 631.067 433.473 627.767 431.14 623.5C428.807 619.167 427.64 614.167 427.64 608.5C427.64 602.833 428.773 597.867 431.04 593.6C433.307 589.333 436.473 586.067 440.54 583.8C444.673 581.467 449.407 580.3 454.74 580.3C459.94 580.3 464.54 581.433 468.54 583.7C472.54 585.967 475.607 589.1 477.74 593.1C479.94 597.033 481.04 601.5 481.04 606.5ZM471.64 604.6C471.64 601.133 470.873 598.167 469.34 595.7C467.807 593.167 465.707 591.267 463.04 590C460.44 588.667 457.54 588 454.34 588C449.74 588 445.807 589.467 442.54 592.4C439.34 595.333 437.507 599.4 437.04 604.6H471.64ZM504.152 588.7V621C504.152 623.667 504.718 625.567 505.852 626.7C506.985 627.767 508.952 628.3 511.752 628.3H518.452V636H510.252C505.185 636 501.385 634.833 498.852 632.5C496.318 630.167 495.052 626.333 495.052 621V588.7H487.952V581.2H495.052V567.4H504.152V581.2H518.452V588.7H504.152ZM580.038 636.9C574.904 636.9 570.238 635.733 566.038 633.4C561.904 631.067 558.638 627.767 556.238 623.5C553.904 619.167 552.738 614.167 552.738 608.5C552.738 602.9 553.938 597.967 556.338 593.7C558.804 589.367 562.138 586.067 566.338 583.8C570.538 581.467 575.238 580.3 580.438 580.3C585.638 580.3 590.338 581.467 594.538 583.8C598.738 586.067 602.038 589.333 604.438 593.6C606.904 597.867 608.138 602.833 608.138 608.5C608.138 614.167 606.871 619.167 604.338 623.5C601.871 627.767 598.504 631.067 594.238 633.4C589.971 635.733 585.238 636.9 580.038 636.9ZM580.038 628.9C583.304 628.9 586.371 628.133 589.238 626.6C592.104 625.067 594.404 622.767 596.138 619.7C597.938 616.633 598.838 612.9 598.838 608.5C598.838 604.1 597.971 600.367 596.238 597.3C594.504 594.233 592.238 591.967 589.438 590.5C586.638 588.967 583.604 588.2 580.338 588.2C577.004 588.2 573.938 588.967 571.138 590.5C568.404 591.967 566.204 594.233 564.538 597.3C562.871 600.367 562.038 604.1 562.038 608.5C562.038 612.967 562.838 616.733 564.438 619.8C566.104 622.867 568.304 625.167 571.038 626.7C573.771 628.167 576.771 628.9 580.038 628.9ZM642.402 588.7H630.902V636H621.802V588.7H614.702V581.2H621.802V577.3C621.802 571.167 623.369 566.7 626.502 563.9C629.702 561.033 634.802 559.6 641.802 559.6V567.2C637.802 567.2 634.969 568 633.302 569.6C631.702 571.133 630.902 573.7 630.902 577.3V581.2H642.402V588.7ZM688.773 591.3C690.573 588.167 693.239 585.567 696.773 583.5C700.373 581.367 704.539 580.3 709.273 580.3C714.139 580.3 718.539 581.467 722.473 583.8C726.473 586.133 729.606 589.433 731.873 593.7C734.139 597.9 735.273 602.8 735.273 608.4C735.273 613.933 734.139 618.867 731.873 623.2C729.606 627.533 726.473 630.9 722.473 633.3C718.539 635.7 714.139 636.9 709.273 636.9C704.606 636.9 700.473 635.867 696.873 633.8C693.339 631.667 690.639 629.033 688.773 625.9V662H679.673V581.2H688.773V591.3ZM725.973 608.4C725.973 604.267 725.139 600.667 723.473 597.6C721.806 594.533 719.539 592.2 716.673 590.6C713.873 589 710.773 588.2 707.373 588.2C704.039 588.2 700.939 589.033 698.073 590.7C695.273 592.3 693.006 594.667 691.273 597.8C689.606 600.867 688.773 604.433 688.773 608.5C688.773 612.633 689.606 616.267 691.273 619.4C693.006 622.467 695.273 624.833 698.073 626.5C700.939 628.1 704.039 628.9 707.373 628.9C710.773 628.9 713.873 628.1 716.673 626.5C719.539 624.833 721.806 622.467 723.473 619.4C725.139 616.267 725.973 612.6 725.973 608.4ZM756.351 590.1C757.951 586.967 760.217 584.533 763.151 582.8C766.151 581.067 769.784 580.2 774.051 580.2V589.6H771.651C761.451 589.6 756.351 595.133 756.351 606.2V636H747.251V581.2H756.351V590.1ZM808.455 636.9C803.322 636.9 798.655 635.733 794.455 633.4C790.322 631.067 787.055 627.767 784.655 623.5C782.322 619.167 781.155 614.167 781.155 608.5C781.155 602.9 782.355 597.967 784.755 593.7C787.222 589.367 790.555 586.067 794.755 583.8C798.955 581.467 803.655 580.3 808.855 580.3C814.055 580.3 818.755 581.467 822.955 583.8C827.155 586.067 830.455 589.333 832.855 593.6C835.322 597.867 836.555 602.833 836.555 608.5C836.555 614.167 835.289 619.167 832.755 623.5C830.289 627.767 826.922 631.067 822.655 633.4C818.389 635.733 813.655 636.9 808.455 636.9ZM808.455 628.9C811.722 628.9 814.789 628.133 817.655 626.6C820.522 625.067 822.822 622.767 824.555 619.7C826.355 616.633 827.255 612.9 827.255 608.5C827.255 604.1 826.389 600.367 824.655 597.3C822.922 594.233 820.655 591.967 817.855 590.5C815.055 588.967 812.022 588.2 808.755 588.2C805.422 588.2 802.355 588.967 799.555 590.5C796.822 591.967 794.622 594.233 792.955 597.3C791.289 600.367 790.455 604.1 790.455 608.5C790.455 612.967 791.255 616.733 792.855 619.8C794.522 622.867 796.722 625.167 799.455 626.7C802.189 628.167 805.189 628.9 808.455 628.9ZM871.12 580.3C875.854 580.3 879.987 581.333 883.52 583.4C887.12 585.467 889.787 588.067 891.52 591.2V581.2H900.72V637.2C900.72 642.2 899.654 646.633 897.52 650.5C895.387 654.433 892.32 657.5 888.32 659.7C884.387 661.9 879.787 663 874.52 663C867.32 663 861.32 661.3 856.52 657.9C851.72 654.5 848.887 649.867 848.02 644H857.02C858.02 647.333 860.087 650 863.22 652C866.354 654.067 870.12 655.1 874.52 655.1C879.52 655.1 883.587 653.533 886.72 650.4C889.92 647.267 891.52 642.867 891.52 637.2V625.7C889.72 628.9 887.054 631.567 883.52 633.7C879.987 635.833 875.854 636.9 871.12 636.9C866.254 636.9 861.82 635.7 857.82 633.3C853.887 630.9 850.787 627.533 848.52 623.2C846.254 618.867 845.12 613.933 845.12 608.4C845.12 602.8 846.254 597.9 848.52 593.7C850.787 589.433 853.887 586.133 857.82 583.8C861.82 581.467 866.254 580.3 871.12 580.3ZM891.52 608.5C891.52 604.367 890.687 600.767 889.02 597.7C887.354 594.633 885.087 592.3 882.22 590.7C879.42 589.033 876.32 588.2 872.92 588.2C869.52 588.2 866.42 589 863.62 590.6C860.82 592.2 858.587 594.533 856.92 597.6C855.254 600.667 854.42 604.267 854.42 608.4C854.42 612.6 855.254 616.267 856.92 619.4C858.587 622.467 860.82 624.833 863.62 626.5C866.42 628.1 869.52 628.9 872.92 628.9C876.32 628.9 879.42 628.1 882.22 626.5C885.087 624.833 887.354 622.467 889.02 619.4C890.687 616.267 891.52 612.633 891.52 608.5ZM925.198 590.1C926.798 586.967 929.065 584.533 931.998 582.8C934.998 581.067 938.632 580.2 942.898 580.2V589.6H940.498C930.298 589.6 925.198 595.133 925.198 606.2V636H916.098V581.2H925.198V590.1ZM950.003 608.4C950.003 602.8 951.136 597.9 953.403 593.7C955.67 589.433 958.77 586.133 962.703 583.8C966.703 581.467 971.136 580.3 976.003 580.3C980.803 580.3 984.97 581.333 988.503 583.4C992.036 585.467 994.67 588.067 996.403 591.2V581.2H1005.6V636H996.403V625.8C994.603 629 991.903 631.667 988.303 633.8C984.77 635.867 980.636 636.9 975.903 636.9C971.036 636.9 966.636 635.7 962.703 633.3C958.77 630.9 955.67 627.533 953.403 623.2C951.136 618.867 950.003 613.933 950.003 608.4ZM996.403 608.5C996.403 604.367 995.57 600.767 993.903 597.7C992.236 594.633 989.97 592.3 987.103 590.7C984.303 589.033 981.203 588.2 977.803 588.2C974.403 588.2 971.303 589 968.503 590.6C965.703 592.2 963.47 594.533 961.803 597.6C960.136 600.667 959.303 604.267 959.303 608.4C959.303 612.6 960.136 616.267 961.803 619.4C963.47 622.467 965.703 624.833 968.503 626.5C971.303 628.1 974.403 628.9 977.803 628.9C981.203 628.9 984.303 628.1 987.103 626.5C989.97 624.833 992.236 622.467 993.903 619.4C995.57 616.267 996.403 612.633 996.403 608.5ZM1086.88 580.2C1091.15 580.2 1094.95 581.1 1098.28 582.9C1101.61 584.633 1104.25 587.267 1106.18 590.8C1108.11 594.333 1109.08 598.633 1109.08 603.7V636H1100.08V605C1100.08 599.533 1098.71 595.367 1095.98 592.5C1093.31 589.567 1089.68 588.1 1085.08 588.1C1080.35 588.1 1076.58 589.633 1073.78 592.7C1070.98 595.7 1069.58 600.067 1069.58 605.8V636H1060.58V605C1060.58 599.533 1059.21 595.367 1056.48 592.5C1053.81 589.567 1050.18 588.1 1045.58 588.1C1040.85 588.1 1037.08 589.633 1034.28 592.7C1031.48 595.7 1030.08 600.067 1030.08 605.8V636H1020.98V581.2H1030.08V589.1C1031.88 586.233 1034.28 584.033 1037.28 582.5C1040.35 580.967 1043.71 580.2 1047.38 580.2C1051.98 580.2 1056.05 581.233 1059.58 583.3C1063.11 585.367 1065.75 588.4 1067.48 592.4C1069.01 588.533 1071.55 585.533 1075.08 583.4C1078.61 581.267 1082.55 580.2 1086.88 580.2ZM1189.91 580.2C1194.18 580.2 1197.98 581.1 1201.31 582.9C1204.64 584.633 1207.28 587.267 1209.21 590.8C1211.14 594.333 1212.11 598.633 1212.11 603.7V636H1203.11V605C1203.11 599.533 1201.74 595.367 1199.01 592.5C1196.34 589.567 1192.71 588.1 1188.11 588.1C1183.38 588.1 1179.61 589.633 1176.81 592.7C1174.01 595.7 1172.61 600.067 1172.61 605.8V636H1163.61V605C1163.61 599.533 1162.24 595.367 1159.51 592.5C1156.84 589.567 1153.21 588.1 1148.61 588.1C1143.88 588.1 1140.11 589.633 1137.31 592.7C1134.51 595.7 1133.11 600.067 1133.11 605.8V636H1124.01V581.2H1133.11V589.1C1134.91 586.233 1137.31 584.033 1140.31 582.5C1143.38 580.967 1146.74 580.2 1150.41 580.2C1155.01 580.2 1159.08 581.233 1162.61 583.3C1166.14 585.367 1168.78 588.4 1170.51 592.4C1172.04 588.533 1174.58 585.533 1178.11 583.4C1181.64 581.267 1185.58 580.2 1189.91 580.2ZM1231.74 572.3C1230 572.3 1228.54 571.7 1227.34 570.5C1226.14 569.3 1225.54 567.833 1225.54 566.1C1225.54 564.367 1226.14 562.9 1227.34 561.7C1228.54 560.5 1230 559.9 1231.74 559.9C1233.4 559.9 1234.8 560.5 1235.94 561.7C1237.14 562.9 1237.74 564.367 1237.74 566.1C1237.74 567.833 1237.14 569.3 1235.94 570.5C1234.8 571.7 1233.4 572.3 1231.74 572.3ZM1236.14 581.2V636H1227.04V581.2H1236.14ZM1278.35 580.2C1285.01 580.2 1290.41 582.233 1294.55 586.3C1298.68 590.3 1300.75 596.1 1300.75 603.7V636H1291.75V605C1291.75 599.533 1290.38 595.367 1287.65 592.5C1284.91 589.567 1281.18 588.1 1276.45 588.1C1271.65 588.1 1267.81 589.6 1264.95 592.6C1262.15 595.6 1260.75 599.967 1260.75 605.7V636H1251.65V581.2H1260.75V589C1262.55 586.2 1264.98 584.033 1268.05 582.5C1271.18 580.967 1274.61 580.2 1278.35 580.2ZM1338.21 580.3C1342.94 580.3 1347.08 581.333 1350.61 583.4C1354.21 585.467 1356.88 588.067 1358.61 591.2V581.2H1367.81V637.2C1367.81 642.2 1366.74 646.633 1364.61 650.5C1362.48 654.433 1359.41 657.5 1355.41 659.7C1351.48 661.9 1346.88 663 1341.61 663C1334.41 663 1328.41 661.3 1323.61 657.9C1318.81 654.5 1315.98 649.867 1315.11 644H1324.11C1325.11 647.333 1327.18 650 1330.31 652C1333.44 654.067 1337.21 655.1 1341.61 655.1C1346.61 655.1 1350.68 653.533 1353.81 650.4C1357.01 647.267 1358.61 642.867 1358.61 637.2V625.7C1356.81 628.9 1354.14 631.567 1350.61 633.7C1347.08 635.833 1342.94 636.9 1338.21 636.9C1333.34 636.9 1328.91 635.7 1324.91 633.3C1320.98 630.9 1317.88 627.533 1315.61 623.2C1313.34 618.867 1312.21 613.933 1312.21 608.4C1312.21 602.8 1313.34 597.9 1315.61 593.7C1317.88 589.433 1320.98 586.133 1324.91 583.8C1328.91 581.467 1333.34 580.3 1338.21 580.3ZM1358.61 608.5C1358.61 604.367 1357.78 600.767 1356.11 597.7C1354.44 594.633 1352.18 592.3 1349.31 590.7C1346.51 589.033 1343.41 588.2 1340.01 588.2C1336.61 588.2 1333.51 589 1330.71 590.6C1327.91 592.2 1325.68 594.533 1324.01 597.6C1322.34 600.667 1321.51 604.267 1321.51 608.4C1321.51 612.6 1322.34 616.267 1324.01 619.4C1325.68 622.467 1327.91 624.833 1330.71 626.5C1333.51 628.1 1336.61 628.9 1340.01 628.9C1343.41 628.9 1346.51 628.1 1349.31 626.5C1352.18 624.833 1354.44 622.467 1356.11 619.4C1357.78 616.267 1358.61 612.633 1358.61 608.5ZM1420.95 588.7V621C1420.95 623.667 1421.52 625.567 1422.65 626.7C1423.78 627.767 1425.75 628.3 1428.55 628.3H1435.25V636H1427.05C1421.98 636 1418.18 634.833 1415.65 632.5C1413.12 630.167 1411.85 626.333 1411.85 621V588.7H1404.75V581.2H1411.85V567.4H1420.95V581.2H1435.25V588.7H1420.95ZM1496.27 606.5C1496.27 608.233 1496.17 610.067 1495.97 612H1452.17C1452.51 617.4 1454.34 621.633 1457.67 624.7C1461.07 627.7 1465.17 629.2 1469.97 629.2C1473.91 629.2 1477.17 628.3 1479.77 626.5C1482.44 624.633 1484.31 622.167 1485.37 619.1H1495.17C1493.71 624.367 1490.77 628.667 1486.37 632C1481.97 635.267 1476.51 636.9 1469.97 636.9C1464.77 636.9 1460.11 635.733 1455.97 633.4C1451.91 631.067 1448.71 627.767 1446.37 623.5C1444.04 619.167 1442.87 614.167 1442.87 608.5C1442.87 602.833 1444.01 597.867 1446.27 593.6C1448.54 589.333 1451.71 586.067 1455.77 583.8C1459.91 581.467 1464.64 580.3 1469.97 580.3C1475.17 580.3 1479.77 581.433 1483.77 583.7C1487.77 585.967 1490.84 589.1 1492.97 593.1C1495.17 597.033 1496.27 601.5 1496.27 606.5ZM1486.87 604.6C1486.87 601.133 1486.11 598.167 1484.57 595.7C1483.04 593.167 1480.94 591.267 1478.27 590C1475.67 588.667 1472.77 588 1469.57 588C1464.97 588 1461.04 589.467 1457.77 592.4C1454.57 595.333 1452.74 599.4 1452.27 604.6H1486.87ZM1517.39 590.1C1518.99 586.967 1521.25 584.533 1524.19 582.8C1527.19 581.067 1530.82 580.2 1535.09 580.2V589.6H1532.69C1522.49 589.6 1517.39 595.133 1517.39 606.2V636H1508.29V581.2H1517.39V590.1ZM1611.49 580.2C1615.76 580.2 1619.56 581.1 1622.89 582.9C1626.22 584.633 1628.86 587.267 1630.79 590.8C1632.72 594.333 1633.69 598.633 1633.69 603.7V636H1624.69V605C1624.69 599.533 1623.32 595.367 1620.59 592.5C1617.92 589.567 1614.29 588.1 1609.69 588.1C1604.96 588.1 1601.19 589.633 1598.39 592.7C1595.59 595.7 1594.19 600.067 1594.19 605.8V636H1585.19V605C1585.19 599.533 1583.82 595.367 1581.09 592.5C1578.42 589.567 1574.79 588.1 1570.19 588.1C1565.46 588.1 1561.69 589.633 1558.89 592.7C1556.09 595.7 1554.69 600.067 1554.69 605.8V636H1545.59V581.2H1554.69V589.1C1556.49 586.233 1558.89 584.033 1561.89 582.5C1564.96 580.967 1568.32 580.2 1571.99 580.2C1576.59 580.2 1580.66 581.233 1584.19 583.3C1587.72 585.367 1590.36 588.4 1592.09 592.4C1593.62 588.533 1596.16 585.533 1599.69 583.4C1603.22 581.267 1607.16 580.2 1611.49 580.2ZM1668.02 636.9C1663.82 636.9 1660.05 636.2 1656.72 634.8C1653.38 633.333 1650.75 631.333 1648.82 628.8C1646.88 626.2 1645.82 623.233 1645.62 619.9H1655.02C1655.28 622.633 1656.55 624.867 1658.82 626.6C1661.15 628.333 1664.18 629.2 1667.92 629.2C1671.38 629.2 1674.12 628.433 1676.12 626.9C1678.12 625.367 1679.12 623.433 1679.12 621.1C1679.12 618.7 1678.05 616.933 1675.92 615.8C1673.78 614.6 1670.48 613.433 1666.02 612.3C1661.95 611.233 1658.62 610.167 1656.02 609.1C1653.48 607.967 1651.28 606.333 1649.42 604.2C1647.62 602 1646.72 599.133 1646.72 595.6C1646.72 592.8 1647.55 590.233 1649.22 587.9C1650.88 585.567 1653.25 583.733 1656.32 582.4C1659.38 581 1662.88 580.3 1666.82 580.3C1672.88 580.3 1677.78 581.833 1681.52 584.9C1685.25 587.967 1687.25 592.167 1687.52 597.5H1678.42C1678.22 594.633 1677.05 592.333 1674.92 590.6C1672.85 588.867 1670.05 588 1666.52 588C1663.25 588 1660.65 588.7 1658.72 590.1C1656.78 591.5 1655.82 593.333 1655.82 595.6C1655.82 597.4 1656.38 598.9 1657.52 600.1C1658.72 601.233 1660.18 602.167 1661.92 602.9C1663.72 603.567 1666.18 604.333 1669.32 605.2C1673.25 606.267 1676.45 607.333 1678.92 608.4C1681.38 609.4 1683.48 610.933 1685.22 613C1687.02 615.067 1687.95 617.767 1688.02 621.1C1688.02 624.1 1687.18 626.8 1685.52 629.2C1683.85 631.6 1681.48 633.5 1678.42 634.9C1675.42 636.233 1671.95 636.9 1668.02 636.9ZM1712.66 566.3L1711.56 616.3H1703.96L1702.86 566.3H1712.66ZM1708.16 636.6C1706.43 636.6 1704.96 636 1703.76 634.8C1702.56 633.6 1701.96 632.133 1701.96 630.4C1701.96 628.667 1702.56 627.2 1703.76 626C1704.96 624.8 1706.43 624.2 1708.16 624.2C1709.83 624.2 1711.23 624.8 1712.36 626C1713.56 627.2 1714.16 628.667 1714.16 630.4C1714.16 632.133 1713.56 633.6 1712.36 634.8C1711.23 636 1709.83 636.6 1708.16 636.6Z" fill="#4D4D4D"/>
<g filter="url(#filter0_d_1_12)">
<circle cx="999.5" cy="908.5" r="164.5" fill="#1C1E1F"/>
<circle cx="999.5" cy="908.5" r="164" stroke="#4D4D4D"/>
</g>
<line x1="835" y1="1072.5" x2="1164" y2="1072.5" stroke="#4D4D4D"/>
<line x1="835" y1="1097.5" x2="1164" y2="1097.5" stroke="#4D4D4D"/>
<line x1="835" y1="1122.5" x2="1164" y2="1122.5" stroke="#4D4D4D"/>
<defs>
<filter id="filter0_d_1_12" x="831" y="744" width="337" height="337" filterUnits="userSpaceOnUse" color-interpolation-filters="sRGB">
<feFlood flood-opacity="0" result="BackgroundImageFix"/>
<feColorMatrix in="SourceAlpha" type="matrix" values="0 0 0 0 0 0 0 0 0 0 0 0 0 0 0 0 0 0 127 0" result="hardAlpha"/>
<feOffset dy="4"/>
<feGaussianBlur stdDeviation="2"/>
<feComposite in2="hardAlpha" operator="out"/>
<feColorMatrix type="matrix" values="0 0 0 0 0 0 0 0 0 0 0 0 0 0 0 0 0 0 0.25 0"/>
<feBlend mode="normal" in2="BackgroundImageFix" result="effect1_dropShadow_1_12"/>
<feBlend mode="normal" in="SourceGraphic" in2="effect1_dropShadow_1_12" result="shape"/>
</filter>
</defs>
</svg>
